<mxfile host="Electron" modified="2024-03-29T15:59:40.515Z" agent="Mozilla/5.0 (Windows NT 10.0; Win64; x64) AppleWebKit/537.36 (KHTML, like Gecko) draw.io/24.1.0 Chrome/120.0.6099.109 Electron/28.1.0 Safari/537.36" etag="9g4TGOYd1h7UTdktjAVj" version="24.1.0" type="device">
  <diagram name="Page-1" id="EH-I7grBS4CyQ-C2Rc_K">
    <mxGraphModel dx="2314" dy="1204" grid="1" gridSize="10" guides="1" tooltips="1" connect="1" arrows="1" fold="1" page="1" pageScale="1" pageWidth="900" pageHeight="550" math="0" shadow="0">
      <root>
        <mxCell id="0" />
        <mxCell id="1" parent="0" />
        <mxCell id="mIS0jWwNrxrION2Cbeoi-1" value="&lt;b&gt;&lt;font style=&quot;font-size: 48px;&quot;&gt;CONTEXTUALIZATION&lt;/font&gt;&lt;/b&gt;" style="text;strokeColor=none;align=center;fillColor=none;html=1;verticalAlign=middle;whiteSpace=wrap;rounded=0;" vertex="1" parent="1">
          <mxGeometry x="370" y="50" width="60" height="30" as="geometry" />
        </mxCell>
      </root>
    </mxGraphModel>
  </diagram>
</mxfile>
